# xmcd
#
# Track frame offsets:
#	165
#	14537
#	31573
#	49155
#	68090
#	84697
#	102081
#	118413
#	132277
#	152613
#	170004
#	185617
#
# Disc length: 2648 seconds
#
# Revision: 0
# Processed by: cddbd v1.5.1PL0 Copyright (c) Steve Scherf et al.
# Submitted via: audiograbber 1.83.01
#
DISCID=9d0a560c
DTITLE=Kocman Petr - Dej country stesti
DYEAR=2004
DGENRE=Country
TTITLE0=Bejt kousek za vodou
TTITLE1=Setkani po letech
TTITLE2=Kdyz se usmivas
TTITLE3=Aha!
TTITLE4=Pet vlcich maku
TTITLE5=Chci byt jak dym
TTITLE6=Oranzovy expres
TTITLE7=Loch Lomond
TTITLE8=Folsom prison bluesStopa  9
TTITLE9=Ruze z Jericha
TTITLE10=Jenom par zlych minut
TTITLE11=Ty navraty domu, ve vanocni cas
EXTD=
EXTT0=
EXTT1=
EXTT2=
EXTT3=
EXTT4=
EXTT5=
EXTT6=
EXTT7=
EXTT8=
EXTT9=
EXTT10=
EXTT11=
PLAYORDER=
